<svg width="47px" height="49px" viewBox="0 0 47 49" version="1.1" xmlns="http://www.w3.org/2000/svg" xmlns:xlink="http://www.w3.org/1999/xlink">
    <!-- Generator: Sketch 41.2 (35397) - http://www.bohemiancoding.com/sketch -->
    <desc>Created with Sketch.</desc>
    <defs>
        <path d="M15.7421816,0 L31.1756803,0 C31.1756803,0 31.1756803,10.6487378 35.4258693,20.6118941 C39.6760582,30.5750505 46.9946774,37.9261076 46.9946774,37.9261076 L36.1100367,48.9021955 C36.1100367,48.9021955 27.2369992,40.6764548 21.459342,27.0244261 C15.6816848,13.3723975 15.7421816,0 15.7421816,0 Z" id="path-1"></path>
        <mask id="mask-2" maskContentUnits="userSpaceOnUse" maskUnits="objectBoundingBox" x="0" y="0" width="31.2525087" height="48.9021955" fill="white">
            <use xlink:href="#path-1"></use>
        </mask>
        <path d="M31.189597,1.77635684e-14 L15.7692492,1.77635684e-14 C15.7692492,1.77635684e-14 15.782355,10.6487378 11.5465299,20.6118941 C7.30923539,30.5750505 1.95399252e-14,37.9261076 1.95399252e-14,37.9261076 L10.895097,48.9021955 C10.895097,48.9021955 19.7574161,40.6764548 25.515124,27.0244261 C31.2700949,13.3723975 31.189597,1.77635684e-14 31.189597,1.77635684e-14 Z" id="path-3"></path>
        <mask id="mask-4" maskContentUnits="userSpaceOnUse" maskUnits="objectBoundingBox" x="0" y="0" width="31.1896274" height="48.9021955" fill="white">
            <use xlink:href="#path-3"></use>
        </mask>
    </defs>
    <g id="Logo" stroke="none" stroke-width="1" fill="none" fill-rule="evenodd">
        <use id="Rectangle-5" stroke="#6F49FF" mask="url(#mask-2)" stroke-width="6" xlink:href="#path-1"></use>
        <use id="Rectangle-5" stroke="#6F49FF" mask="url(#mask-4)" stroke-width="6" xlink:href="#path-3"></use>
    </g>
</svg>
